<?xml version="1.0" encoding="UTF-8"?>
<svg version="1.1" xmlns="http://www.w3.org/2000/svg" width="495" height="401">
<path d="M0 0 C3.96984872 4.47851835 3.42372815 9.56840407 3.38818359 15.21875 C3.39606903 16.75861572 3.39606903 16.75861572 3.40411377 18.32958984 C3.41730766 21.71988175 3.40857756 25.10970339 3.3984375 28.5 C3.4004584 30.85742279 3.40336998 33.21484497 3.40713501 35.57226562 C3.41155755 40.51177933 3.40512938 45.45113023 3.39111328 50.390625 C3.37402165 56.72266601 3.38386318 63.05432553 3.40183067 69.38635254 C3.41267027 74.2539355 3.40922131 79.12142799 3.4014473 83.98901367 C3.39944579 86.32381231 3.40190282 88.65861915 3.40888596 90.9934082 C3.41650309 94.25624353 3.40489188 97.51846072 3.38818359 100.78125 C3.39425629 101.74659668 3.40032898 102.71194336 3.40658569 103.70654297 C3.36030822 108.58374834 3.27858958 112.09351107 0 116 C-2.23828125 117.01953125 -2.23828125 117.01953125 -5 117 C-7.55797582 116.00837491 -9.79054377 114.980087 -12.1875 113.6875 C-12.87150879 113.33155762 -13.55551758 112.97561523 -14.26025391 112.60888672 C-16.51734571 111.4246133 -18.7596269 110.21558641 -21 109 C-21.8151709 108.56026855 -22.6303418 108.12053711 -23.47021484 107.66748047 C-27.46964963 105.50244895 -31.45886545 103.31866739 -35.4296875 101.1015625 C-36.07147949 100.74400879 -36.71327148 100.38645508 -37.37451172 100.01806641 C-39 99 -39 99 -41 97 C-40.8668165 93.33745362 -40.72325007 90.89015393 -38.375 88 C-34.90509936 86.5389892 -32.66733868 87.22027082 -29 88 C-26.28496301 89.16914489 -23.74705178 90.58789256 -21.1875 92.0625 C-16.84328681 94.86033199 -16.84328681 94.86033199 -12 96 C-12 70.59 -12 45.18 -12 19 C-18.93 23.455 -18.93 23.455 -26 28 C-30.19696776 30.52339428 -34.39959499 33.02574751 -38.625 35.5 C-40.98443422 36.88832242 -43.34212514 38.27958293 -45.69921875 39.671875 C-46.29817459 40.02558167 -46.89713043 40.37928833 -47.51423645 40.74371338 C-54.18807683 44.69183766 -60.81463755 48.71713567 -67.4375 52.75 C-76.05172208 57.99423105 -84.67653689 63.21902844 -93.33227539 68.39453125 C-98.22057815 71.32143181 -103.09512064 74.27025925 -107.9609375 77.234375 C-108.5721344 77.60647095 -109.1833313 77.97856689 -109.81304932 78.36193848 C-112.82086493 80.19329697 -115.82749148 82.02655345 -118.83203125 83.86328125 C-124.5771714 87.36349959 -130.34998793 90.7940967 -136.203125 94.109375 C-142.03329347 97.41285583 -147.7325422 100.88587671 -153.375 104.5 C-154.21804687 105.03625 -155.06109375 105.5725 -155.9296875 106.125 C-157.95496864 107.41381527 -159.97838725 108.70544144 -162 110 C-150.727416 117.22510502 -139.2186782 124.02855393 -127.64575195 130.75756836 C-120.72633873 134.78544635 -113.87380069 138.90089717 -107.06567383 143.11572266 C-102.47833162 145.93527407 -97.83403075 148.65453875 -93.1875 151.375 C-85.93244274 155.64100586 -78.73978015 159.98449126 -71.62133789 164.47436523 C-66.71343273 167.56718138 -61.75746161 170.57017429 -56.7746582 173.54052734 C-52.66513522 175.99287248 -48.57938329 178.48091199 -44.50366211 180.98901367 C-37.24048696 185.45581524 -29.93411165 189.83921203 -22.5625 194.125 C-21.75135742 194.59856934 -20.94021484 195.07213867 -20.10449219 195.56005859 C-19.34942383 195.99656738 -18.59435547 196.43307617 -17.81640625 196.8828125 C-17.15068604 197.26840332 -16.48496582 197.65399414 -15.79907227 198.05126953 C-13.85539279 199.13864935 -13.85539279 199.13864935 -11 200 C-11.0441843 195.3728374 -11.11404657 190.74703538 -11.20751953 186.12060547 C-11.23570954 184.54747356 -11.25693398 182.97420053 -11.27099609 181.40087891 C-11.29245442 179.13631044 -11.33911348 176.87343496 -11.390625 174.609375 C-11.39246796 173.55759064 -11.39246796 173.55759064 -11.39434814 172.48455811 C-11.49379464 169.15406536 -11.75167922 167.3184724 -13.82519531 164.65917969 C-15.6555516 163.26278304 -17.4091577 161.98266321 -19.40625 160.84375 C-20.0566626 160.46766602 -20.7070752 160.09158203 -21.37719727 159.70410156 C-22.07772217 159.30674805 -22.77824707 158.90939453 -23.5 158.5 C-25.04092536 157.61034559 -26.58126681 156.71967922 -28.12109375 155.828125 C-28.92401855 155.36470703 -29.72694336 154.90128906 -30.55419922 154.42382812 C-34.58418304 152.07776448 -38.5712747 149.66120703 -42.5625 147.25 C-48.18008198 143.86007024 -53.81958641 140.51424902 -59.5 137.23046875 C-61.13666626 136.28349121 -61.13666626 136.28349121 -62.80639648 135.31738281 C-64.94152124 134.08468726 -67.07898073 132.85602491 -69.21899414 131.63183594 C-70.18957764 131.07141602 -71.16016113 130.51099609 -72.16015625 129.93359375 C-73.02261963 129.43915771 -73.88508301 128.94472168 -74.77368164 128.43530273 C-77.50790201 126.67255665 -79.50755342 125.13641519 -80.8125 122.125 C-81.06704199 119.24019081 -80.33930733 117.54468392 -79 115 C-76 113 -76 113 -73.46875 112.99609375 C-68.30135438 114.49161253 -64.06225184 117.25840513 -59.5 120.0625 C-57.52651571 121.25339008 -55.5525576 122.44349533 -53.578125 123.6328125 C-52.62228516 124.21192383 -51.66644531 124.79103516 -50.68164062 125.38769531 C-47.23510296 127.45988529 -43.75260805 129.46199279 -40.25 131.4375 C-35.72761824 133.98873892 -31.2702911 136.63242479 -26.82324219 139.31176758 C-23.76928917 141.13795965 -20.69845764 142.93340557 -17.625 144.7265625 C-15.41660051 146.02592923 -13.20826795 147.32540972 -11 148.625 C-9.86949219 149.27984375 -8.73898438 149.9346875 -7.57421875 150.609375 C-6.49785156 151.24617187 -5.42148438 151.88296875 -4.3125 152.5390625 C-2.85263672 153.39298584 -2.85263672 153.39298584 -1.36328125 154.26416016 C1.20163692 156.14810315 1.86444587 157.08689043 3 160 C3.26069641 162.53538513 3.26069641 162.53538513 3.2746582 165.42358398 C3.28419022 166.50828476 3.29372223 167.59298553 3.30354309 168.71055603 C3.30217598 170.4606472 3.30217598 170.4606472 3.30078125 172.24609375 C3.30506638 173.44935806 3.3093515 174.65262238 3.31376648 175.89234924 C3.31950898 178.43677135 3.32001064 180.98120987 3.31567383 183.52563477 C3.31251495 187.41906739 3.33597157 191.31173951 3.36132812 195.20507812 C3.36360121 197.67708237 3.36430457 200.14908867 3.36328125 202.62109375 C3.372491 203.78579697 3.38170074 204.95050018 3.39118958 206.15049744 C3.38496078 207.23835037 3.37873199 208.32620331 3.37231445 209.44702148 C3.37294388 210.4009227 3.3735733 211.35482391 3.3742218 212.33763123 C2.92446348 215.53739807 1.91852468 217.41689705 0 220 C-3.91860171 221.50026465 -5.58934512 221.17652585 -9.453125 219.515625 C-10.72905001 218.77795188 -11.99420414 218.02144218 -13.25 217.25 C-13.93892334 216.84458984 -14.62784668 216.43917969 -15.33764648 216.02148438 C-17.57026598 214.69971346 -19.78595718 213.35262758 -22 212 C-23.50647647 211.08848556 -25.01298699 210.1770274 -26.51953125 209.265625 C-29.567671 207.41403106 -32.60841161 205.55092062 -35.64453125 203.6796875 C-39.49901979 201.30445271 -43.36723495 198.95369543 -47.25 196.625 C-48.12942261 196.09737061 -48.12942261 196.09737061 -49.02661133 195.55908203 C-52.82080092 193.28888274 -56.62693252 191.03947038 -60.4375 188.796875 C-61.39188965 188.23500488 -62.3462793 187.67313477 -63.32958984 187.09423828 C-65.26190862 185.95668696 -67.1945214 184.81963488 -69.12744141 183.68310547 C-74.83991783 180.3128745 -80.46825953 176.86847699 -85.9765625 173.171875 C-88.11012383 171.93622172 -89.55489035 171.30770739 -92 171 C-94.07079864 171.96817123 -94.07079864 171.96817123 -96.07421875 173.54296875 C-101.14724332 177.1355427 -106.42439228 180.21904225 -111.8125 183.3125 C-121.27601519 188.78779815 -130.65976069 194.38022808 -140 200.0625 C-140.59382477 200.42348785 -141.18764954 200.78447571 -141.79946899 201.15640259 C-147.12337656 204.39432225 -152.44024432 207.63516042 -157.6875 210.99609375 C-161 213 -161 213 -163 213 C-163 213.66 -163 214.32 -163 215 C-162.11965088 215.26772217 -161.23930176 215.53544434 -160.33227539 215.8112793 C-157.14946845 216.94668021 -154.56539966 218.27139531 -151.68359375 220.01953125 C-150.18203735 220.92517822 -150.18203735 220.92517822 -148.65014648 221.84912109 C-147.58997314 222.49703613 -146.5297998 223.14495117 -145.4375 223.8125 C-144.332854 224.48104004 -143.22820801 225.14958008 -142.09008789 225.83837891 C-134.13756088 230.66227669 -126.23705258 235.56845862 -118.34594727 240.49194336 C-112.44598951 244.15514462 -106.45937021 247.61525221 -100.38354492 250.97680664 C-95.84632098 253.49490494 -91.47638294 256.19240631 -87.125 259.015625 C-83.04438334 261.60681658 -78.89970596 264.08390811 -74.75 266.5625 C-67.24674139 271.04453186 -59.77132269 275.56941206 -52.3125 280.125 C-44.12943202 285.11897281 -35.90686488 290.03624311 -27.62890625 294.87109375 C-23.6827313 297.17740691 -19.77617249 299.54705768 -15.8828125 301.94140625 C-13.88211458 303.14445781 -13.88211458 303.14445781 -11 304 C-11.0441843 299.3728374 -11.11404657 294.74703538 -11.20751953 290.12060547 C-11.23570954 288.54747356 -11.25693398 286.97420053 -11.27099609 285.40087891 C-11.29245442 283.13631044 -11.33911348 280.87343496 -11.390625 278.609375 C-11.39246796 277.55759064 -11.39246796 277.55759064 -11.39434814 276.48455811 C-11.49429702 273.13724054 -11.75194081 271.31580714 -13.84594727 268.64990234 C-16.66477248 266.49081577 -19.62077466 264.65217934 -22.6875 262.875 C-23.68088379 262.28924194 -23.68088379 262.28924194 -24.69433594 261.69165039 C-26.79304572 260.45559593 -28.89636621 259.22765106 -31 258 C-32.27252664 257.25196723 -33.54466965 256.50328139 -34.81640625 255.75390625 C-37.53319578 254.15382551 -40.25061393 252.5548236 -42.96875 250.95703125 C-43.74347656 250.50150879 -44.51820313 250.04598633 -45.31640625 249.57666016 C-47.31323197 248.40348871 -49.3107356 247.23147099 -51.30859375 246.06005859 C-54.34742219 244.2780112 -57.38362873 242.49155449 -60.4185791 240.70291138 C-61.62990445 239.98996692 -62.84205102 239.27841573 -64.05505371 238.56832886 C-65.77323147 237.56224296 -67.48822906 236.55073219 -69.203125 235.5390625 C-70.19989258 234.95334473 -71.19666016 234.36762695 -72.22363281 233.76416016 C-79.54336184 229.11305552 -79.54336184 229.11305552 -81 225.5625 C-81 221.97141911 -79.52666067 219.52666067 -77 217 C-70.75359279 217.31198125 -66.78798838 218.8100869 -61.5625 222.125 C-60.84570068 222.56239502 -60.12890137 222.99979004 -59.39038086 223.45043945 C-57.79344913 224.42501163 -56.19994311 225.40521287 -54.609375 226.39013672 C-49.78646592 229.3656478 -44.92142052 232.27131471 -40.0625 235.1875 C-39.0202124 235.81575684 -37.9779248 236.44401367 -36.90405273 237.09130859 C-31.20873904 240.51514588 -25.48914197 243.88929063 -19.72265625 247.19140625 C-19.12596634 247.53338547 -18.52927643 247.87536469 -17.914505 248.22770691 C-15.02669324 249.88098007 -12.13515322 251.52697126 -9.23852539 253.16479492 C-8.20332764 253.75494385 -7.16812988 254.34509277 -6.1015625 254.953125 C-5.18713379 255.47036133 -4.27270508 255.98759766 -3.33056641 256.52050781 C0.12544765 258.71445765 1.69364198 260.08092594 3 264 C3.09753698 265.70142649 3.13817791 267.40639051 3.14526367 269.1105957 C3.15164352 270.15210281 3.15802338 271.19360992 3.16459656 272.26667786 C3.16626579 273.95418404 3.16626579 273.95418404 3.16796875 275.67578125 C3.17129715 276.83369675 3.17462555 277.99161224 3.17805481 279.18461609 C3.18312134 281.63666384 3.18546322 284.0887185 3.18530273 286.54077148 C3.18748518 290.28706282 3.20563297 294.03305782 3.22460938 297.77929688 C3.22754417 300.16145733 3.22952839 302.54361918 3.23046875 304.92578125 C3.23765427 306.04471268 3.24483978 307.1636441 3.25224304 308.31648254 C3.2228429 318.35944675 3.2228429 318.35944675 1 323 C-1.1875 324.5625 -1.1875 324.5625 -4 325 C-8.78401578 323.19245172 -13.00753948 320.926496 -17.375 318.25 C-18.68992128 317.45022007 -20.0050409 316.65076618 -21.3203125 315.8515625 C-22.05282227 315.40458008 -22.78533203 314.95759766 -23.54003906 314.49707031 C-28.4315865 311.52019766 -33.34133735 308.57353429 -38.25 305.625 C-39.86938477 304.6513147 -39.86938477 304.6513147 -41.52148438 303.65795898 C-47.93598148 299.80974229 -54.38329153 296.02867885 -60.875 292.3125 C-66.97695563 288.81505325 -72.95406885 285.17035443 -78.875 281.375 C-86.98085602 276.18139145 -95.24644664 271.28361149 -103.5625 266.4375 C-113.67571959 260.54258982 -123.72811172 254.56771153 -133.69042969 248.42041016 C-137.2920739 246.20536089 -140.90547054 244.00971468 -144.51831055 241.81298828 C-147.45996987 240.02433995 -150.39991893 238.23290362 -153.33984375 236.44140625 C-156.97143865 234.2300365 -160.60927952 232.02966216 -164.25390625 229.83984375 C-165.06859375 229.34806641 -165.88328125 228.85628906 -166.72265625 228.34960938 C-168.22672047 227.44189783 -169.73305459 226.53793118 -171.2421875 225.63867188 C-181.80731615 219.24505196 -181.80731615 219.24505196 -184.0625 215 C-183.96336861 211.82779567 -182.94729214 210.55785313 -181 208 C-177.89479232 205.67464601 -174.58637239 203.72384718 -171.25 201.75 C-170.29988037 201.17499756 -169.34976074 200.59999512 -168.37084961 200.00756836 C-165.58753786 198.3263907 -162.79565399 196.66055298 -160 195 C-158.09380016 193.86355195 -156.18799543 192.72644677 -154.2824707 191.58886719 C-153.1269025 190.89929888 -151.9704751 190.21116854 -150.81323242 189.52441406 C-144.18633582 185.56629998 -137.72214248 181.35280755 -131.22998047 177.17895508 C-124.83325416 173.09386177 -118.35047794 169.24559931 -111.65844727 165.6640625 C-108.22926837 163.9641086 -108.22926837 163.9641086 -106 161 C-114.63133732 155.65169925 -123.31637078 150.40905726 -132.0625 145.25 C-134.43276101 143.84844898 -136.80233154 142.44573248 -139.171875 141.04296875 C-140.04613884 140.52554359 -140.04613884 140.52554359 -140.93806458 139.99766541 C-179.6453247 117.08567595 -179.6453247 117.08567595 -184 112 C-184.09019161 108.48252729 -183.19299974 107.2158088 -180.8515625 104.59765625 C-177.87415481 101.8853602 -174.78773314 99.85945686 -171.3125 97.875 C-169.973452 97.0907076 -168.63493315 96.30551122 -167.296875 95.51953125 C-166.2459668 94.90585693 -166.2459668 94.90585693 -165.17382812 94.27978516 C-161.44377974 92.08381552 -157.75375155 89.82287984 -154.0625 87.5625 C-153.30718994 87.10109619 -152.55187988 86.63969238 -151.77368164 86.16430664 C-147.41584829 83.49728098 -143.07893307 80.79950786 -138.75610352 78.07617188 C-132.15165676 73.91594108 -125.4828766 69.95678453 -118.68359375 66.12109375 C-113.68001579 63.26912257 -108.79183055 60.22796269 -103.88769531 57.20947266 C-98.75281027 54.05481329 -93.58066181 50.97373697 -88.375 47.9375 C-82.92222009 44.75295636 -77.52990412 41.49140981 -72.1875 38.125 C-58.22139761 29.32870855 -43.98375114 20.97899223 -29.76416016 12.60131836 C-23.55248034 8.93545477 -17.38731919 5.20466484 -11.265625 1.390625 C-7.04075865 -1.20256883 -4.92025381 -1.20848339 0 0 Z " fill="#FEFEFE" transform="translate(239,58)"/>
<path d="M0 0 C3.91440836 2.50628409 6.97005465 5.87381093 10.1796875 9.203125 C13.26935769 12.26240499 16.61903909 14.87505278 20.04296875 17.546875 C23.43004987 20.25653989 26.60693443 23.16977387 29.8125 26.08984375 C34.70051734 30.48489344 39.72013888 34.72734928 44.72167969 38.9921875 C47.7971256 41.61569786 50.8676522 44.24494307 53.9375 46.875 C54.53014648 47.38264893 55.12279297 47.89029785 55.73339844 48.41333008 C59.30835951 51.4785207 62.86099265 54.56734567 66.3984375 57.67578125 C71.75256865 62.34373313 77.16516606 66.94465589 82.5625 71.5625 C83.80733459 72.627554 85.05212653 73.69265785 86.296875 74.7578125 C86.90281494 75.27625732 87.50875488 75.79470215 88.13305664 76.32885742 C89.8969883 77.84028743 91.65754277 79.35558348 93.41796875 80.87109375 C95.30059994 82.48985211 97.19517675 84.08278701 99.11328125 85.66015625 C103.53556931 89.33865911 106.99098371 92.50473434 107.8359375 98.50390625 C108.07410477 103.33137364 107.106851 106.35534699 104.5625 110.5625 C102.5466382 112.69237307 100.33726392 114.52847369 98.0625 116.375 C97.13026611 117.15049194 97.13026611 117.15049194 96.17919922 117.94165039 C94.9145355 118.99132451 93.64616185 120.03654576 92.37402344 121.07714844 C90.729311 122.42572398 89.10018058 123.79023182 87.4765625 125.1640625 C73.64523881 136.74828038 73.64523881 136.74828038 67.5 137.125 C62.20701125 136.36885875 58.56958818 135.11750018 55.203125 130.83203125 C52.61790474 126.39643073 52.0680586 122.69224494 52.97265625 117.65234375 C54.89247031 110.85035353 59.98729669 107.42579147 65.41796875 103.39453125 C67.81457494 101.66612845 67.81457494 101.66612845 68.5625 98.5625 C67.71558594 98.19511719 67.71558594 98.19511719 66.8515625 97.8203125 C64.14957928 96.335605 62.18955 94.54283665 59.9375 92.4375 C56.56767671 89.34437774 53.15959929 86.38798177 49.5625 83.5625 C44.35084083 79.45362137 39.46706705 75.02930404 34.5625 70.5625 C29.23244502 65.78916257 23.7457899 61.23334443 18.1953125 56.71875 C14.93810147 54.05112316 11.74396625 51.31977075 8.5625 48.5625 C7.75720346 53.50552986 7.41667484 58.29297949 7.42446899 63.30456543 C7.42164771 64.05289752 7.41882643 64.80122962 7.41591966 65.57223845 C7.40763078 68.06314364 7.40624037 70.55400406 7.40478516 73.04492188 C7.40011288 74.83753076 7.39496863 76.63013846 7.38938904 78.42274475 C7.37813787 82.27499784 7.36968952 86.12724333 7.36326981 89.97950745 C7.35256301 96.07291522 7.33231255 102.16626802 7.31015015 108.25964355 C7.24831092 125.58404023 7.19418591 142.90843283 7.16113281 160.23291016 C7.14278643 169.80717456 7.113855 179.38134601 7.0731281 188.95554209 C7.05206791 194.01888256 7.03660212 199.08210598 7.03432083 204.14549255 C7.03217313 208.90621313 7.01629127 213.66668954 6.98993111 218.42733574 C6.98274282 220.17239981 6.98063486 221.91749348 6.98403358 223.66256905 C6.98793818 226.04881208 6.97344279 228.434279 6.95449829 230.82043457 C6.96002799 231.50731338 6.96555768 232.19419219 6.97125494 232.90188551 C6.8911011 238.76919569 5.42278172 243.34216375 1.625 247.875 C-2.54052872 251.28315987 -5.89418153 252.01417175 -11.19140625 251.875 C-15.85733358 251.2258275 -18.49438576 248.58511832 -21.57609558 245.24362183 C-24.79624838 240.21113912 -23.96569621 234.03703133 -23.9074707 228.28955078 C-23.9079484 226.9293778 -23.910175 225.5692045 -23.91400528 224.20903683 C-23.91935474 220.50285897 -23.89980792 216.79717735 -23.87585568 213.09108853 C-23.85462112 209.150864 -23.85621399 205.21064275 -23.85496521 201.27037048 C-23.84882409 193.68863005 -23.8211519 186.10712193 -23.78512424 178.52547032 C-23.75657075 172.44422524 -23.73579904 166.36300046 -23.72058105 160.28170776 C-23.71841863 159.4232824 -23.7162562 158.56485704 -23.71402824 157.68041879 C-23.70967923 155.94727415 -23.70533902 154.21412949 -23.7010076 152.48098481 C-23.65964206 136.38244277 -23.59069187 120.28412313 -23.50636101 104.18575382 C-23.45677777 94.69529856 -23.41616136 85.20489702 -23.38623047 75.71435547 C-23.35489031 66.00033112 -23.30357012 56.28669534 -23.22494507 46.57293701 C-23.1985202 43.29513934 -23.17983831 40.01744456 -23.1678772 36.73956299 C-23.15327517 33.00770097 -23.11965517 29.27653437 -23.06950569 25.54498482 C-23.04798258 23.63351991 -23.04502542 21.72187256 -23.04307556 19.81028748 C-22.92233649 12.94742458 -22.1262452 8.40272608 -18.4375 2.5625 C-13.13617915 -2.41752868 -6.47653513 -2.70836924 0 0 Z " fill="#DAD9D9" transform="translate(294.4375,116.4375)"/>
<path d="M0 0 C4.23151005 1.72821574 7.35583743 4.71375281 10.75 7.6875 C11.37616211 8.23059814 12.00232422 8.77369629 12.64746094 9.33325195 C14.43492039 10.88511702 16.21776977 12.44213605 18 14 C18.7734375 14.6703125 19.546875 15.340625 20.34375 16.03125 C23.87603829 19.10028737 27.35035829 22.22710589 30.8125 25.375 C35.10176457 29.24643667 39.52367437 32.91337046 44.01171875 36.55078125 C51.56335438 42.74016104 58.96439843 49.11791714 66.1875 55.6875 C69.5008308 58.69814479 72.88941929 61.56565178 76.375 64.375 C81.54571836 68.55417436 86.41732369 72.9841042 91.2734375 77.51953125 C93.94639211 80.01098778 93.94639211 80.01098778 96.73828125 82.15234375 C100.04286851 84.85194612 101.66374221 87.69686447 102.28515625 91.953125 C102.49683484 96.7757154 101.54328734 99.79460579 99 104 C96.9841382 106.12987307 94.77476392 107.96597369 92.5 109.8125 C91.56776611 110.58799194 91.56776611 110.58799194 90.61669922 111.37915039 C89.3520355 112.42882451 88.08366185 113.47404576 86.81152344 114.51464844 C85.166811 115.86322398 83.53768058 117.22773182 81.9140625 118.6015625 C68.08273881 130.18578038 68.08273881 130.18578038 61.9375 130.5625 C56.64451125 129.80635875 53.00708818 128.55500018 49.640625 124.26953125 C47.05540474 119.83393073 46.5055586 116.12974494 47.41015625 111.08984375 C49.32997031 104.28785353 54.42479669 100.86329147 59.85546875 96.83203125 C62.25207494 95.10362845 62.25207494 95.10362845 63 92 C62.15308594 91.63261719 62.15308594 91.63261719 61.2890625 91.2578125 C58.58707928 89.773105 56.62705 87.98033665 54.375 85.875 C51.00517671 82.78187774 47.59709929 79.82548177 44 77 C38.78834083 72.89112137 33.90456705 68.46680404 29 64 C24.59029398 60.05088223 20.09035383 56.23794975 15.5 52.5 C13.66632583 51.00041667 11.83297769 49.50043457 10 48 C9.20464844 47.35546875 8.40929687 46.7109375 7.58984375 46.046875 C6.87957031 45.45390625 6.16929687 44.8609375 5.4375 44.25 C4.50744141 43.48429687 4.50744141 43.48429687 3.55859375 42.703125 C-0.33157655 38.45221209 -0.33963821 33.38625635 -0.44921875 27.890625 C-0.47095657 27.12320984 -0.4926944 26.35579468 -0.51509094 25.56512451 C-0.55883459 23.95157052 -0.59807287 22.33788878 -0.63305664 20.72412109 C-0.68763096 18.24404876 -0.75775407 15.76476814 -0.83007812 13.28515625 C-0.87070436 11.7161692 -0.91044919 10.14715903 -0.94921875 8.578125 C-0.96997971 7.83338928 -0.99074066 7.08865356 -1.01213074 6.3213501 C-1.04747161 4.54791422 -1.02920353 2.77354756 -1 1 C-0.67 0.67 -0.34 0.34 0 0 Z " fill="#6C0000" transform="translate(300,123)"/>
<path d="M0 0 C3.17574563 1.74068066 4.96891017 3.1760215 6.9921875 6.2109375 C2.9921875 6.2109375 2.9921875 6.2109375 1.2421875 4.7734375 C-1.97186602 2.54145589 -5.17756341 2.10761672 -9.0078125 2.2109375 C-12.99017908 3.41316137 -14.51146912 4.38034776 -16.64875793 7.95692444 C-18.96389165 13.77798052 -18.44805642 20.11130942 -18.44018555 26.27514648 C-18.44921715 27.7061446 -18.45954777 29.137135 -18.47106934 30.56811523 C-18.49868621 34.46292712 -18.50794423 38.35759263 -18.51392341 42.25248981 C-18.52341791 46.40821488 -18.54968577 50.56383722 -18.57392883 54.71949768 C-18.61772727 62.66935177 -18.6461288 70.61918621 -18.66925222 78.56912428 C-18.69552353 87.32495924 -18.73987265 96.08066888 -18.78548408 104.83642077 C-18.86550414 120.30543836 -18.92116374 135.7743924 -18.95653892 151.24357486 C-18.98041825 161.63575454 -19.01959427 172.02762442 -19.0843901 182.41963404 C-19.12654445 189.22048188 -19.15888754 196.02132682 -19.18376404 202.82225972 C-19.19883953 206.81140132 -19.21908543 210.80036015 -19.25217247 214.78939629 C-19.28261779 218.47163818 -19.29915179 222.15367459 -19.30481315 225.83603549 C-19.31156415 227.81559487 -19.33338276 229.79508497 -19.35566902 231.77453041 C-19.35490301 232.95249876 -19.354137 234.13046711 -19.35334778 235.34413147 C-19.35906705 236.36307527 -19.36478632 237.38201906 -19.3706789 238.43183994 C-18.94092928 241.72317834 -17.98665156 243.56251384 -16.0078125 246.2109375 C-12.24288122 248.38301324 -9.7367999 249.2109375 -5.3828125 249.2109375 C-1.35434614 248.01731784 0.33508386 246.41509189 2.9921875 243.2109375 C4.28115381 240.63300489 4.14518699 238.75280336 4.18164062 235.86401367 C4.1983934 234.71589706 4.21514618 233.56778046 4.23240662 232.38487244 C4.24594681 231.10415359 4.259487 229.82343475 4.2734375 228.50390625 C4.29134735 227.12247752 4.30963392 225.74105363 4.32826233 224.3596344 C4.37858078 220.51864911 4.42227538 216.67761208 4.46471024 212.83653259 C4.4921507 210.40170299 4.52147343 207.9669037 4.55148315 205.53210449 C5.19767615 153.09373125 5.57543963 100.65154135 5.9921875 48.2109375 C6.9821875 48.8709375 7.9721875 49.5309375 8.9921875 50.2109375 C9.28112216 52.74833501 9.37224561 55.04068782 9.33517456 57.57951355 C9.33606919 58.73235548 9.33606919 58.73235548 9.33698189 59.90848714 C9.33522941 62.49807993 9.31183374 65.08703112 9.28857422 67.67651367 C9.28277992 69.52749284 9.2782682 71.37847641 9.27494812 73.22946167 C9.26184658 78.26904447 9.22960549 83.30834071 9.19323492 88.34780288 C9.15756996 93.61759343 9.13659544 98.88744584 9.11331177 104.15730286 C9.0717178 113.01389053 9.01743129 121.87033552 8.95605469 130.72680664 C8.88530618 140.96270466 8.83599233 151.19853892 8.79793918 161.43460673 C8.76472794 170.21862129 8.71993996 179.00252145 8.66549695 187.78643018 C8.63297708 193.03425933 8.60443153 198.28202793 8.58626938 203.52992821 C8.56852426 208.46873933 8.53622539 213.40724774 8.49279213 218.34589767 C8.4792213 220.15705475 8.47067101 221.96825758 8.46755409 223.77946281 C8.46246516 226.25578348 8.43905298 228.73128992 8.41110229 231.20744324 C8.41390351 231.92107834 8.41670473 232.63471343 8.41959083 233.36997384 C8.31930704 239.32196582 6.91121185 243.92048908 3.0546875 248.5234375 C-1.11084122 251.93159737 -4.46449403 252.66260925 -9.76171875 252.5234375 C-14.42764608 251.874265 -17.06469826 249.23355582 -20.14640808 245.89205933 C-23.36656088 240.85957662 -22.53600871 234.68546883 -22.4777832 228.93798828 C-22.4782609 227.5778153 -22.4804875 226.217642 -22.48431778 224.85747433 C-22.48966724 221.15129647 -22.47012042 217.44561485 -22.44616818 213.73952603 C-22.42493362 209.7993015 -22.42652649 205.85908025 -22.42527771 201.91880798 C-22.41913659 194.33706755 -22.3914644 186.75555943 -22.35543674 179.17390782 C-22.32688325 173.09266274 -22.30611154 167.01143796 -22.29089355 160.93014526 C-22.28873113 160.0717199 -22.2865687 159.21329454 -22.28434074 158.32885629 C-22.27999173 156.59571165 -22.27565152 154.86256699 -22.2713201 153.12942231 C-22.22995456 137.03088027 -22.16100437 120.93256063 -22.07667351 104.83419132 C-22.02709027 95.34373606 -21.98647386 85.85333452 -21.95654297 76.36279297 C-21.92520281 66.64876862 -21.87388262 56.93513284 -21.79525757 47.22137451 C-21.7688327 43.94357684 -21.75015081 40.66588206 -21.7381897 37.38800049 C-21.72358767 33.65613847 -21.68996767 29.92497187 -21.63981819 26.19342232 C-21.61829508 24.28195741 -21.61533792 22.37031006 -21.61338806 20.45872498 C-21.49264899 13.59586208 -20.6965577 9.05116358 -17.0078125 3.2109375 C-12.38059557 -1.13584204 -5.9423605 -2.33532455 0 0 Z " fill="#E4E5E4" transform="translate(293.0078125,115.7890625)"/>
<path d="M0 0 C3.17574563 1.74068066 4.96891017 3.1760215 6.9921875 6.2109375 C2.9921875 6.2109375 2.9921875 6.2109375 1.2421875 4.7734375 C-1.97186602 2.54145589 -5.17756341 2.10761672 -9.0078125 2.2109375 C-12.98962155 3.41299306 -14.5112852 4.38084182 -16.64974976 7.95593262 C-18.96679766 13.78194524 -18.43942665 20.12264926 -18.42431641 26.29101562 C-18.43170803 27.72363491 -18.4404166 29.1562479 -18.45033264 30.58885193 C-18.47367376 34.48774116 -18.47881098 38.3864709 -18.48099184 42.28542137 C-18.48671891 46.44427947 -18.51007736 50.60303973 -18.53158569 54.76184082 C-18.5702082 62.71643533 -18.59431488 70.67100168 -18.61271036 78.62566614 C-18.64550886 92.56372342 -18.70551889 106.50169207 -18.76454234 120.43965912 C-18.7827392 124.73684892 -18.80028372 129.03403912 -18.81626129 133.33123779 C-18.94971675 168.96190125 -19.41789323 204.58515995 -20.0078125 240.2109375 C-20.3378125 240.2109375 -20.6678125 240.2109375 -21.0078125 240.2109375 C-21.74331145 192.96399824 -22.27538741 145.72537625 -22.04227448 98.47230339 C-22.02164945 94.28690051 -22.00328257 90.10150606 -21.9888916 85.91607666 C-21.95371952 75.72640192 -21.90438962 65.53706713 -21.82069588 55.34766293 C-21.78385851 50.85899032 -21.75272632 46.37048555 -21.73736572 41.88168335 C-21.72243597 37.6891336 -21.68830795 33.49716591 -21.63962936 29.30487633 C-21.62487474 27.76383092 -21.61676867 26.22270492 -21.61589432 24.68158913 C-21.60695848 16.67332993 -21.57538813 10.06336763 -17.0078125 3.2109375 C-12.38059557 -1.13584204 -5.9423605 -2.33532455 0 0 Z " fill="#F8F8F7" transform="translate(293.0078125,115.7890625)"/>
<path d="M0 0 C0.66 0 1.32 0 2 0 C2.93253195 2.79759585 3.12557775 4.47477067 3.12698364 7.36474609 C3.13121338 8.70227936 3.13121338 8.70227936 3.13552856 10.0668335 C3.13350433 11.04251282 3.1314801 12.01819214 3.12939453 13.0234375 C3.13114685 14.05293518 3.13289917 15.08243286 3.13470459 16.14312744 C3.13911389 19.55376866 3.13618833 22.96435823 3.1328125 26.375 C3.1334858 28.74007172 3.13445605 31.10514337 3.13571167 33.47021484 C3.13718739 38.43001971 3.13503809 43.38980659 3.13037109 48.34960938 C3.12467389 54.71541781 3.12795356 61.08118408 3.13394356 67.44699097 C3.13755254 72.3316276 3.13640903 77.21625419 3.13381577 82.10089111 C3.13314743 84.44850672 3.13397167 86.79612324 3.13629532 89.14373779 C3.13882732 92.42137068 3.13497342 95.69893475 3.12939453 98.9765625 C3.13141876 99.95224182 3.13344299 100.92792114 3.13552856 101.9331665 C3.13270874 102.82485535 3.12988892 103.71654419 3.12698364 104.63525391 C3.12660662 105.41027252 3.12622959 106.18529114 3.12584114 106.98379517 C3 109 3 109 2 112 C1.34 112 0.68 112 0 112 C-1.32450727 106.98081671 -1.14024534 101.97528169 -1.12939453 96.82543945 C-1.13114685 95.803797 -1.13289917 94.78215454 -1.13470459 93.72955322 C-1.13910098 90.35744522 -1.13619353 86.98538977 -1.1328125 83.61328125 C-1.13348602 81.27109263 -1.13445644 78.92890408 -1.13571167 76.5867157 C-1.13718551 71.68174574 -1.13504355 66.77679401 -1.13037109 61.87182617 C-1.12466456 55.57323672 -1.12796065 49.27468978 -1.13394356 42.97610188 C-1.13754957 38.14212216 -1.13641056 33.3081526 -1.13381577 28.47417259 C-1.1331471 26.15085025 -1.13397284 23.82752699 -1.13629532 21.5042057 C-1.13882349 18.26490442 -1.1349793 15.02567301 -1.12939453 11.78637695 C-1.13141876 10.81959518 -1.13344299 9.85281342 -1.13552856 8.85673523 C-1.13270874 7.97772552 -1.12988892 7.09871582 -1.12698364 6.19306946 C-1.12660662 5.42710103 -1.12622959 4.6611326 -1.12584114 3.87195301 C-1 2 -1 2 0 0 Z " fill="#EEEEEF" transform="translate(239,60)"/>
<path d="M0 0 C1.485 0.99 1.485 0.99 3 2 C3.34751892 3.95762634 3.34751892 3.95762634 3.30834961 6.41381836 C3.30098282 7.35109268 3.29361603 8.288367 3.286026 9.25404358 C3.25079079 10.81245216 3.25079079 10.81245216 3.21484375 12.40234375 C3.20202866 13.50158676 3.18921356 14.60082977 3.17601013 15.73338318 C3.14597443 18.17233916 3.10912122 20.61121772 3.06658936 23.04998779 C2.99761411 27.14152835 2.95100569 31.2328122 2.91064453 35.32470703 C2.83379809 42.85077801 2.73433926 50.37639805 2.62768555 57.90209961 C2.58368301 61.01079725 2.54206783 64.11951191 2.50268555 67.22827148 C2.27086566 85.5006966 1.9219482 103.74624048 1 122 C0.67 122 0.34 122 0 122 C0 81.74 0 41.48 0 0 Z " fill="#F3F3F2" transform="translate(299,164)"/>
<path d="M0 0 C0.33 0 0.66 0 1 0 C1.00364563 0.9513382 1.00729126 1.90267639 1.01104736 2.88284302 C1.04802417 11.85802531 1.10582608 20.83286535 1.18390274 29.80778694 C1.22337473 34.4216769 1.25556453 39.0353761 1.27099609 43.64941406 C1.28616459 48.10410277 1.32061332 52.55826699 1.36830902 57.01272202 C1.38312087 58.71027945 1.39104091 60.40791176 1.39188385 62.1055336 C1.39425594 64.48775075 1.42135257 66.8685213 1.45410156 69.25048828 C1.4490712 69.94892349 1.44404083 70.6473587 1.43885803 71.36695862 C1.54416794 76.33344707 2.8574574 79.19228985 6 83 C10.79878165 85.7162915 14.52583043 86.33515324 20 86 C19.67 86.99 19.34 87.98 19 89 C14.34577299 89.37233816 10.94804747 89.46507989 6.6875 87.375 C2.60785982 83.76973658 0.22933282 80.77388837 -0.48101807 75.27932739 C-0.49249087 73.87520131 -0.48225449 72.47078523 -0.45410156 71.06689453 C-0.45468567 70.2954863 -0.45526978 69.52407806 -0.45587158 68.72929382 C-0.45309984 66.19666479 -0.42205267 63.66523419 -0.390625 61.1328125 C-0.38315933 59.37019493 -0.37746794 57.60756904 -0.37347412 55.84494019 C-0.35824337 51.21859593 -0.3189839 46.59275855 -0.2746582 41.96661377 C-0.23365008 37.24083309 -0.2154513 32.51497004 -0.1953125 27.7890625 C-0.15248694 18.52581967 -0.08426685 9.26295208 0 0 Z " fill="#EDEDED" transform="translate(271,279)"/>
<path d="M0 0 C0.33 0 0.66 0 1 0 C1.33 5.61 1.66 11.22 2 17 C2.33 17 2.66 17 3 17 C3.20638953 39.59489033 3.20638953 39.59489033 2 50 C1.34 50 0.68 50 0 50 C0 33.5 0 17 0 0 Z " fill="#DBDCE0" transform="translate(239,221)"/>
<path d="M0 0 C0.33 0 0.66 0 1 0 C1.09178099 9.3820563 1.13447002 18.75334773 0.625 28.125 C0.55539063 29.42695313 0.48578125 30.72890625 0.4140625 32.0703125 C0.27742187 33.03710938 0.14078125 34.00390625 0 35 C-0.99 35.495 -0.99 35.495 -2 36 C-2.0496011 31.67669221 -2.0858144 27.35353715 -2.10986328 23.0300293 C-2.11989352 21.56059888 -2.13352101 20.09118829 -2.15087891 18.62182617 C-2.17525898 16.50434463 -2.18651286 14.38712801 -2.1953125 12.26953125 C-2.20578613 10.99698486 -2.21625977 9.72443848 -2.22705078 8.41333008 C-2.00942228 5.14164829 -1.41502625 2.93042634 0 0 Z " fill="#D8D9D9" transform="translate(241,336)"/>
<path d="M0 0 C0.33 0 0.66 0 1 0 C1.02505615 0.64026123 1.0501123 1.28052246 1.07592773 1.94018555 C1.1923546 4.85613726 1.31486867 7.7718029 1.4375 10.6875 C1.47681641 11.69490234 1.51613281 12.70230469 1.55664062 13.74023438 C1.61948242 15.20493164 1.61948242 15.20493164 1.68359375 16.69921875 C1.72025146 17.59471436 1.75690918 18.49020996 1.79467773 19.4128418 C1.93924259 22.02275151 1.93924259 22.02275151 2.59399414 24.60864258 C3.23153794 28.36374875 1.73805179 30.70369488 0 34 C-2.43171508 36.98081203 -4.15892722 38.45127532 -8 39 C-6.76551991 35.29655972 -4.76665659 33.69749018 -2 31 C-0.57732138 28.15464275 -0.78028131 25.63781448 -0.68359375 22.4609375 C-0.64169922 21.15898437 -0.59980469 19.85703125 -0.55664062 18.515625 C-0.51682701 17.13541955 -0.47711478 15.75521117 -0.4375 14.375 C-0.39430593 12.98696585 -0.35069135 11.59894472 -0.30664062 10.2109375 C-0.20028 6.80739744 -0.09825286 3.40378222 0 0 Z " fill="#E7E7E7" transform="translate(298,328)"/>
<path d="M0 0 C-0.33 0.99 -0.66 1.98 -1 3 C-4.0625 4.1875 -4.0625 4.1875 -7 5 C-7 5.66 -7 6.32 -7 7 C-8.2684375 7.61875 -8.2684375 7.61875 -9.5625 8.25 C-13.11713583 10.05963279 -16.55033514 11.99919438 -20 14 C-19.09471794 10.27975331 -17.75342374 8.57287324 -14.62890625 6.54296875 C-13.28196858 5.74326582 -11.92609766 4.9584522 -10.5625 4.1875 C-9.88123047 3.78080078 -9.19996094 3.37410156 -8.49804688 2.95507812 C-3.42723214 0 -3.42723214 0 0 0 Z " fill="#EEEFEF" transform="translate(118,127)"/>
<path d="M0 0 C0.886875 0.78375 1.77375 1.5675 2.6875 2.375 C7.68371173 6.49570734 11.49676647 7.25502877 18 7 C17.67 7.99 17.34 8.98 17 10 C12.28809898 10.37695208 8.92629407 10.46314703 4.625 8.3125 C2.03758184 6.03310781 0.53402683 4.06805366 -1 1 C-0.67 0.67 -0.34 0.34 0 0 Z " fill="#F5F3F3" transform="translate(273,358)"/>
<path d="M0 0 C2.84258606 1.31238168 5.09408245 2.76707176 7.453125 4.8203125 C8.071875 5.35527344 8.690625 5.89023438 9.328125 6.44140625 C9.96234375 6.99699219 10.5965625 7.55257812 11.25 8.125 C11.8996875 8.68832031 12.549375 9.25164062 13.21875 9.83203125 C14.815727 11.21764364 16.40830122 12.60832754 18 14 C17.01 14.33 16.02 14.66 15 15 C13.40600586 14.01196289 13.40600586 14.01196289 11.71484375 12.47265625 C11.10189453 11.92802734 10.48894531 11.38339844 9.85742188 10.82226562 C9.22384766 10.24154297 8.59027344 9.66082031 7.9375 9.0625 C6.67959682 7.92415485 5.41804827 6.78982087 4.15234375 5.66015625 C3.59538818 5.15105713 3.03843262 4.64195801 2.46459961 4.11743164 C1.04202457 2.79780862 1.04202457 2.79780862 -1 3 C-0.67 2.01 -0.34 1.02 0 0 Z " fill="#9B2F2F" transform="translate(300,123)"/>
<path d="M0 0 C-1.25161772 3.75485316 -2.45574597 4.16894128 -5.8125 6.125 C-6.68519531 6.64320313 -7.55789062 7.16140625 -8.45703125 7.6953125 C-10.68637627 8.8390932 -12.55453305 9.53256809 -15 10 C-14.87109375 8.203125 -14.87109375 8.203125 -14 6 C-11.34765625 4.296875 -11.34765625 4.296875 -8.0625 2.75 C-6.98097656 2.22921875 -5.89945313 1.7084375 -4.78515625 1.171875 C-2 0 -2 0 0 0 Z " fill="#EDEDEE" transform="translate(88,159)"/>
<path d="M0 0 C6.44619587 -0.45236462 9.68277455 0.27794218 15 4 C15.99 5.485 15.99 5.485 17 7 C13 7 13 7 11.3125 5.5625 C7.8201241 3.20278655 4.13214839 3.25605193 0 3 C0 2.01 0 1.02 0 0 Z " fill="#FAF8F6" transform="translate(283,115)"/>
<path d="M0 0 C3.9201305 1.67461885 7.01217061 4.28889884 10.25 7 C10.80429687 7.45117188 11.35859375 7.90234375 11.9296875 8.3671875 C13.32731582 9.53073029 14.66885563 10.76094738 16 12 C16 12.66 16 13.32 16 14 C11.76510902 12.59090858 9.03613938 10.55839653 5.75 7.5625 C4.87859375 6.78003906 4.0071875 5.99757812 3.109375 5.19140625 C1 3 1 3 0 0 Z " fill="#860F0E" transform="translate(301,161)"/>
<path d="M0 0 C0.99 0 1.98 0 3 0 C3 6.6 3 13.2 3 20 C2.34 20.33 1.68 20.66 1 21 C0.67 14.07 0.34 7.14 0 0 Z " fill="#F3F3F4" transform="translate(239,218)"/>
<path d="M0 0 C-0.0625 1.75 -0.0625 1.75 -1 4 C-4.67238347 6.86059344 -7.29553866 8 -12 8 C-12 7.34 -12 6.68 -12 6 C-9.8828125 4.4921875 -9.8828125 4.4921875 -7.125 2.875 C-6.22007812 2.33617188 -5.31515625 1.79734375 -4.3828125 1.2421875 C-2 0 -2 0 0 0 Z " fill="#EDEEEE" transform="translate(174,106)"/>
<path d="M0 0 C0.66 0 1.32 0 2 0 C2 9.9 2 19.8 2 30 C1.67 30 1.34 30 1 30 C0.97494385 29.25838623 0.9498877 28.51677246 0.92407227 27.75268555 C0.80813868 24.39744672 0.68540015 21.04249056 0.5625 17.6875 C0.52318359 16.52025391 0.48386719 15.35300781 0.44335938 14.15039062 C0.40146484 13.03212891 0.35957031 11.91386719 0.31640625 10.76171875 C0.27974854 9.73006592 0.24309082 8.69841309 0.20532227 7.63549805 C0.09838758 4.89251742 0.09838758 4.89251742 -1 2 C-0.67 1.34 -0.34 0.68 0 0 Z " fill="#EFEFEF" transform="translate(239,60)"/>
<path d="M0 0 C0.66 0.66 1.32 1.32 2 2 C-0.77280706 5.08089673 -3.06326356 6.68775452 -7 8 C-7.33 7.01 -7.66 6.02 -8 5 C-4.04 2.525 -4.04 2.525 0 0 Z " fill="#E6E7E8" transform="translate(217,79)"/>
<path d="M0 0 C0 0.99 0 1.98 0 3 C-3.72965139 5.03435531 -5.66905042 6 -10 6 C-10 5.34 -10 4.68 -10 4 C-3.375 0 -3.375 0 0 0 Z " fill="#F0F0F1" transform="translate(155,118)"/>
<path d="M0 0 C0.33 1.32 0.66 2.64 1 4 C-0.65 4.66 -2.3 5.32 -4 6 C-4 6.66 -4 7.32 -4 8 C-4.99 8 -5.98 8 -7 8 C-6.875 6.25 -6.875 6.25 -6 4 C-2.9375 1.75 -2.9375 1.75 0 0 Z " fill="#EEEFF0" transform="translate(80,265)"/>
<path d="M0 0 C3.48539917 0.64544429 6.02819057 2.10134397 9 4 C8.67 4.66 8.34 5.32 8 6 C5.07120629 5.37240135 2.63904371 4.41377341 0 3 C0 2.01 0 1.02 0 0 Z " fill="#F4F4F4" transform="translate(109,306)"/>
<path d="M0 0 C-1 3 -1 3 -3.9375 4.75 C-5.4534375 5.36875 -5.4534375 5.36875 -7 6 C-7.66 5.67 -8.32 5.34 -9 5 C-4.16129032 0 -4.16129032 0 0 0 Z " fill="#E3E3E6" transform="translate(118,127)"/>
<path d="M0 0 C3.65316671 1.24976756 4.78065836 1.67098753 7 5 C3 5 3 5 0.75 3 C0.1725 2.34 -0.405 1.68 -1 1 C-0.67 0.67 -0.34 0.34 0 0 Z " fill="#F0ECEC" transform="translate(293,117)"/>
<path d="M0 0 C-0.125 1.875 -0.125 1.875 -1 4 C-4.0625 5.25 -4.0625 5.25 -7 6 C-7 5.01 -7 4.02 -7 3 C-2.77777778 0 -2.77777778 0 0 0 Z " fill="#EAEAEA" transform="translate(180,89)"/>
<path d="M0 0 C-1 3 -1 3 -4.0625 4.6875 C-5.031875 5.120625 -6.00125 5.55375 -7 6 C-7 5.34 -7 4.68 -7 4 C-7.66 3.67 -8.32 3.34 -9 3 C-2.25 0 -2.25 0 0 0 Z " fill="#F5F5F5" transform="translate(88,159)"/>
<path d="M0 0 C0.33 0.99 0.66 1.98 1 3 C-1.64738916 4.4606285 -2.89448334 5 -6 5 C-3.74193548 0 -3.74193548 0 0 0 Z " fill="#F4F4F4" transform="translate(102,240)"/>
<path d="M0 0 C2.49361571 1.20381448 4.68143083 2.45428722 7 4 C6.67 4.99 6.34 5.98 6 7 C1.125 3.375 1.125 3.375 0 0 Z " fill="#913030" transform="translate(301,161)"/>
</svg>
